<svg xmlns="http://www.w3.org/2000/svg" width="40" height="35" fill="none"><path fill="#AFB1B8" fill-rule="evenodd" d="M17.1136 2.9345h-.1366c-.2099-.0127-.4199-.0178-.6299-.0229h-.4553c-.3972 0-.802.0102-1.2042.0305a.6253.6253 0 0 0-.091 0A28.2752 28.2752 0 0 0 4.0805 5.625l-.4326.2085v22.1412l1.0119-.3433c.888-.3052 1.834-.5798 2.813-.8341a34.3282 34.3282 0 0 1 8.0952-1.0756v2.909a24.4348 24.4348 0 0 0-1.065.0306h-.0835a32.3609 32.3609 0 0 0-6.2282.9561 31.6343 31.6343 0 0 0-7.4197 2.8913V4.1119a29.727 29.727 0 0 1 7.784-3.166A29.7931 29.7931 0 0 1 15.8918 0h.4275c.511.0127 1.0094.0356 1.4774.0712a21.0909 21.0909 0 0 1 3.6554.5823v2.8633a22.6227 22.6227 0 0 0-3.5416-.534l-.0726-.0061c-.2468-.021-.4939-.0422-.7243-.0422Zm5.0392 2.9269c.6349.0483 1.2927.0712 1.958.0712a31.4672 31.4672 0 0 0 7.7131-.9892 31.7767 31.7767 0 0 0 7.4172-2.8938v27.8906a29.815 29.815 0 0 1-7.7865 3.1659 29.9427 29.9427 0 0 1-7.3362.9435 22.4048 22.4048 0 0 1-5.5654-.6561V5.3223c.43.0992.8727.1907 1.323.267.7387.1246 1.5179.2161 2.2768.272Zm14.1943.2161-1.0119.3408a44.5537 44.5537 0 0 1-2.8131.8417 34.2628 34.2628 0 0 1-8.4063 1.0782c-.6602 0-1.2673-.0178-1.8542-.056l-.807-.0534V31.0057l.6931.061c.6426.056 1.3054.0839 1.9732.0839a26.8836 26.8836 0 0 0 6.6203-.8569 27.7638 27.7638 0 0 0 5.1733-1.8589l.4326-.2085V6.0775Z" clip-rule="evenodd"/></svg>